<?xml version="1.0" encoding="UTF-8"?>
<svg id="Outlines" xmlns="http://www.w3.org/2000/svg" viewBox="0 0 24 24">
  <g id="radio">
    <path class="cls-1"
      d="M21.61,6.36h-8c-.41,0-.75-.34-.75-.75s.34-.75.75-.75h8c.41,0,.75.34.75.75s-.34.75-.75.75Z" />
    <path class="cls-1"
      d="M18.61,10.36h-5c-.41,0-.75-.34-.75-.75s.34-.75.75-.75h5c.41,0,.75.34.75.75s-.34.75-.75.75Z" />
    <path class="cls-1"
      d="M21.61,16.36h-8c-.41,0-.75-.34-.75-.75s.34-.75.75-.75h8c.41,0,.75.34.75.75s-.34.75-.75.75Z" />
    <path class="cls-1"
      d="M18.61,20.36h-5c-.41,0-.75-.34-.75-.75s.34-.75.75-.75h5c.41,0,.75.34.75.75s-.34.75-.75.75Z" />
    <path class="cls-1"
      d="M6.61,5.11h0c1.24,0,2.25,1.01,2.25,2.25h0c0,1.24-1.01,2.25-2.25,2.25h0c-1.24,0-2.25-1.01-2.25-2.25h0c0-1.24,1.01-2.25,2.25-2.25Z" />
    <path class="cls-1"
      d="M6.61,11.86c-1.2,0-2.33-.47-3.18-1.32-.85-.85-1.32-1.98-1.32-3.18s.48-2.34,1.32-3.18,2-1.32,3.18-1.32,2.33.47,3.18,1.32c.85.85,1.32,1.98,1.32,3.18s-.47,2.33-1.32,3.18c-.85.85-1.98,1.32-3.18,1.32ZM6.61,4.36c-.79,0-1.56.32-2.12.88s-.88,1.33-.88,2.12.31,1.56.88,2.12c1.13,1.13,3.11,1.13,4.24,0,.57-.57.88-1.32.88-2.12s-.31-1.55-.88-2.12-1.32-.88-2.12-.88Z" />
    <path class="cls-1"
      d="M6.61,22.36c-1.2,0-2.33-.47-3.18-1.32-.85-.85-1.32-1.98-1.32-3.18s.48-2.34,1.32-3.18,2-1.32,3.18-1.32,2.33.47,3.18,1.32c.85.85,1.32,1.98,1.32,3.18s-.47,2.33-1.32,3.18c-.85.85-1.98,1.32-3.18,1.32ZM6.61,14.86c-.79,0-1.56.32-2.12.88s-.88,1.33-.88,2.12.31,1.56.88,2.12c1.13,1.13,3.11,1.13,4.24,0,.57-.57.88-1.32.88-2.12s-.31-1.55-.88-2.12-1.32-.88-2.12-.88Z" />
  </g>
</svg>