<?xml version="1.0" encoding="UTF-8"?>
<svg id="Outlines" xmlns="http://www.w3.org/2000/svg" viewBox="0 0 24 24">
  <g id="input-field">
    <path
      d="M14.27,19.03H4.6c-.83,0-1.61-.32-2.19-.91s-.91-1.36-.91-2.19v-7.04c0-.83.32-1.6.91-2.19s1.36-.91,2.19-.91h9.68c.41,0,.75.34.75.75s-.34.75-.75.75H4.6c-.43,0-.83.17-1.13.47s-.47.7-.47,1.13v7.04c0,.43.17.83.47,1.13s.7.47,1.13.47h9.68c.41,0,.75.34.75.75s-.34.75-.75.75Z" />
    <path class="cls-1"
      d="M8.41,15.37c-.39,0-.7-.32-.7-.7v-3.42c0-.2-.08-.4-.22-.54-.28-.29-.79-.29-1.08,0-.14.14-.22.33-.22.54v3.42c0,.39-.32.7-.7.7s-.7-.32-.7-.7v-3.42c0-.58.23-1.12.64-1.54.81-.81,2.25-.81,3.07,0,.41.41.64.96.64,1.54v3.42c0,.39-.32.7-.7.7Z" />
    <path class="cls-1"
      d="M8.41,13.42h-2.93c-.39,0-.7-.32-.7-.7s.32-.7.7-.7h2.93c.39,0,.7.32.7.7s-.32.7-.7.7Z" />
    <path
      d="M20.8,12.87h-3.81c-.41,0-.75-.34-.75-.75s.34-.75.75-.75h3.81c.41,0,.75.34.75.75s-.34.75-.75.75Z" />
    <path
      d="M16.03,20.5c-.41,0-.75-.34-.75-.75s.34-.75.75-.75c.56,0,1.09-.22,1.49-.62s.62-.93.62-1.49V7.36c0-.55-.23-1.1-.62-1.49s-.93-.62-1.49-.62c-.41,0-.75-.34-.75-.75s.34-.75.75-.75c.96,0,1.87.38,2.55,1.06s1.06,1.6,1.06,2.55v9.53c0,.96-.38,1.87-1.06,2.55s-1.59,1.06-2.55,1.06Z" />
    <path
      d="M21.75,20.5c-.96,0-1.87-.38-2.55-1.06s-1.06-1.59-1.06-2.55V7.36c0-.96.38-1.87,1.06-2.55s1.59-1.06,2.55-1.06c.41,0,.75.34.75.75s-.34.75-.75.75c-.56,0-1.09.22-1.49.62s-.62.94-.62,1.49v9.53c0,.56.22,1.09.62,1.49s.94.62,1.49.62c.41,0,.75.34.75.75s-.34.75-.75.75Z" />
  </g>
</svg>