<?xml version="1.0" encoding="UTF-8"?>
<svg id="Outlines" xmlns="http://www.w3.org/2000/svg" viewBox="0 0 24 24">
  <g id="test">
    <path class="cls-1"
      d="M20,7.75h-6c-.41,0-.75-.34-.75-.75s.34-.75.75-.75h6c.41,0,.75.34.75.75s-.34.75-.75.75Z" />
    <path class="cls-1"
      d="M20,11.75h-6c-.41,0-.75-.34-.75-.75s.34-.75.75-.75h6c.41,0,.75.34.75.75s-.34.75-.75.75Z" />
    <path class="cls-1"
      d="M20,15.75H4c-.41,0-.75-.34-.75-.75s.34-.75.75-.75h16c.41,0,.75.34.75.75s-.34.75-.75.75Z" />
    <path class="cls-1"
      d="M20,19.75H4c-.41,0-.75-.34-.75-.75s.34-.75.75-.75h16c.41,0,.75.34.75.75s-.34.75-.75.75Z" />
    <path class="cls-1"
      d="M10,13.08c-.41,0-.75-.34-.75-.75v-5.83c0-.47-.18-.91-.51-1.24-.66-.66-1.81-.66-2.47,0-.33.33-.51.77-.51,1.24v5.83c0,.41-.34.75-.75.75s-.75-.34-.75-.75v-5.83c0-.87.34-1.68.95-2.3,1.23-1.23,3.37-1.23,4.6,0,.61.62.95,1.43.95,2.3v5.83c0,.41-.34.75-.75.75Z" />
    <path class="cls-1"
      d="M10,9.75h-5c-.41,0-.75-.34-.75-.75s.34-.75.75-.75h5c.41,0,.75.34.75.75s-.34.75-.75.75Z" />
  </g>
</svg>