<?xml version="1.0" encoding="UTF-8"?>
<svg id="Outlines" xmlns="http://www.w3.org/2000/svg" viewBox="0 0 24 24">
  <g id="button">
    <path class="cls-1"
      d="M11.59,14.89h-6.44c-.76,0-1.5-.31-2.03-.84-.53-.53-.84-1.27-.84-2.03v-5.37c0-.76.31-1.5.84-2.03.53-.53,1.27-.84,2.03-.84h12.89c.77,0,1.49.3,2.03.84.53.53.84,1.28.84,2.03v3.22c0,.4-.32.72-.72.72s-.72-.32-.72-.72v-3.22c0-.38-.15-.74-.42-1.01s-.63-.42-1.01-.42H5.15c-.38,0-.74.15-1,.42-.27.27-.42.63-.42,1.01v5.37c0,.38.15.74.42,1,.27.27.63.42,1.01.42h6.44c.4,0,.72.32.72.72s-.32.72-.72.72Z" />
    <path class="cls-1"
      d="M16.25,19.76s-.04,0-.05,0c-.31-.02-.57-.23-.67-.52l-3.04-9.13c-.09-.27-.02-.57.18-.78.21-.2.51-.27.78-.18l9.13,3.04c.29.1.5.36.52.67.02.31-.14.6-.42.73l-3.83,1.92-1.92,3.83c-.13.26-.39.42-.68.42ZM14.41,11.07l1.98,5.94,1.21-2.41c.07-.15.19-.27.34-.34l2.41-1.21-5.94-1.98Z" />
  </g>
</svg>