<?xml version="1.0" encoding="UTF-8"?>
<svg id="Outlines" xmlns="http://www.w3.org/2000/svg" viewBox="0 0 24 24">
  <g id="date-picker">
    <path class="cls-1"
      d="M18,21.75H6c-.73,0-1.42-.29-1.94-.81s-.81-1.21-.81-1.94V7c0-.73.29-1.42.8-1.94.52-.52,1.21-.81,1.95-.81h12c.73,0,1.42.29,1.94.8.52.52.81,1.21.81,1.95v12c0,.74-.29,1.43-.8,1.94-.52.52-1.21.81-1.95.81ZM6,5.75c-.33,0-.65.13-.88.37s-.37.55-.37.88v12c0,.33.13.65.37.88s.55.37.88.37h12c.33,0,.65-.13.89-.37s.36-.55.36-.88V7c0-.33-.13-.65-.37-.89-.24-.23-.55-.36-.88-.36H6Z" />
    <path class="cls-1"
      d="M16,7.75c-.41,0-.75-.34-.75-.75V3c0-.41.34-.75.75-.75s.75.34.75.75v4c0,.41-.34.75-.75.75Z" />
    <path class="cls-1"
      d="M8,7.75c-.41,0-.75-.34-.75-.75V3c0-.41.34-.75.75-.75s.75.34.75.75v4c0,.41-.34.75-.75.75Z" />
    <path class="cls-1"
      d="M20,11.75H4c-.41,0-.75-.34-.75-.75s.34-.75.75-.75h16c.41,0,.75.34.75.75s-.34.75-.75.75Z" />
    <g>
      <path class="cls-1" d="M8,15h2v2h-2v-2Z" />
      <path class="cls-1"
        d="M10,17.75h-2c-.41,0-.75-.34-.75-.75v-2c0-.41.34-.75.75-.75h2c.41,0,.75.34.75.75v2c0,.41-.34.75-.75.75ZM8.75,16.25h.5v-.5h-.5v.5Z" />
    </g>
  </g>
</svg>