<?xml version="1.0" encoding="UTF-8"?>
<svg id="Outlines" xmlns="http://www.w3.org/2000/svg" viewBox="0 0 24 24">
  <g id="fieldset">
    <path class="cls-1"
      d="M19,19.75H5c-.73,0-1.42-.29-1.94-.81s-.81-1.21-.81-1.94V6c0-.73.29-1.42.81-1.94s1.21-.81,1.94-.81h4c.2,0,.39.08.53.22l2.78,2.78h6.69c.73,0,1.42.29,1.94.8.52.52.81,1.21.81,1.95v8c0,.74-.29,1.43-.8,1.94-.52.52-1.21.81-1.95.81ZM5,4.75c-.33,0-.65.13-.88.37s-.37.55-.37.88v11c0,.33.13.65.37.88s.55.37.88.37h14c.33,0,.65-.13.89-.37s.36-.55.36-.88v-8c0-.33-.13-.65-.37-.88s-.55-.37-.88-.37h-7c-.2,0-.39-.08-.53-.22l-2.78-2.78h-3.69Z" />
  </g>
</svg>