<svg width="19" height="15" viewBox="0 0 19 15" fill="none" xmlns="http://www.w3.org/2000/svg">
  <g id="094bf1ea">
    <g id="a2b628af">
      <path id="b01f3a7e" d="M18.3747 3.70913C18.3747 3.43299 18.1509 3.20913 17.8747 3.20913H9V4.5C9 4.77614 8.77614 5 8.5 5H5.5H2.5C2.22386 5 2 4.77614 2 4.5V3.20913H1.12524C0.849102 3.20913 0.625244 3.43299 0.625244 3.70913V13.7919C0.625244 14.0681 0.849102 14.2919 1.12524 14.2919H17.8747C18.1509 14.2919 18.3747 14.0681 18.3747 13.7919V3.70913Z" stroke="#A3A3A3"></path>
      <path id="036d4e5b" d="M8.4912 1H2.5088C2.2278 1 2 1.19525 2 1.43611V4.56389C2 4.80475 2.2278 5 2.5088 5H8.4912C8.7722 5 9 4.80475 9 4.56389V1.43611C9 1.19525 8.7722 1 8.4912 1Z" stroke="#A3A3A3"></path>
    </g>
  </g>
</svg>