<?xml version="1.0" encoding="UTF-8"?>
<svg id="Outlines" xmlns="http://www.w3.org/2000/svg" viewBox="0 0 24 24">
  <g id="checkbox">
    <path class="cls-1"
      d="M19,21.75H5c-.73,0-1.42-.29-1.94-.81s-.81-1.21-.81-1.94V5c0-.73.29-1.42.8-1.94.52-.52,1.21-.81,1.95-.81h14c.73,0,1.42.29,1.94.8.52.52.81,1.21.81,1.95v14c0,.74-.29,1.43-.8,1.94-.52.52-1.21.81-1.95.81ZM5,3.75c-.33,0-.65.13-.88.37s-.37.55-.37.88v14c0,.33.13.65.37.88s.55.37.88.37h14c.33,0,.65-.13.89-.37s.36-.55.36-.88V5c0-.33-.13-.65-.37-.89-.24-.23-.55-.36-.88-.36H5Z" />
    <path class="cls-1"
      d="M11,14.75c-.19,0-.38-.07-.53-.22l-2-2c-.29-.29-.29-.77,0-1.06s.77-.29,1.06,0l1.47,1.47,3.47-3.47c.29-.29.77-.29,1.06,0s.29.77,0,1.06l-4,4c-.15.15-.34.22-.53.22Z" />
  </g>
</svg>