<?xml version="1.0" encoding="UTF-8"?>
<svg id="Outlines" xmlns="http://www.w3.org/2000/svg" viewBox="0 0 24 24">
  <g id="link">
    <path class="cls-1"
      d="M9,15.75c-.19,0-.38-.07-.53-.22-.29-.29-.29-.77,0-1.06l6-6c.29-.29.77-.29,1.06,0s.29.77,0,1.06l-6,6c-.15.15-.34.22-.53.22Z" />
    <path class="cls-1"
      d="M18,13.75c-.21,0-.42-.09-.57-.26-.27-.31-.24-.79.07-1.06l.53-.46c.76-.77,1.21-1.83,1.21-2.97s-.45-2.21-1.24-3.01-1.89-1.25-3.01-1.25-2.2.44-3,1.25l-.43.5c-.27.31-.75.35-1.06.08-.31-.27-.35-.75-.08-1.06l.46-.54c1.12-1.12,2.57-1.72,4.1-1.72s3,.61,4.07,1.68,1.68,2.53,1.68,4.07-.6,2.98-1.68,4.07l-.57.5c-.14.12-.32.18-.49.18Z" />
    <path class="cls-1"
      d="M9.04,20.75c-1.54,0-3-.6-4.09-1.68-.54-.53-.96-1.16-1.26-1.86-.29-.71-.44-1.45-.44-2.21s.15-1.5.44-2.2c.29-.7.72-1.33,1.26-1.86l.56-.49c.31-.27.78-.25,1.06.07.27.31.24.78-.07,1.06l-.52.46c-.37.36-.68.83-.9,1.35-.22.52-.33,1.07-.33,1.63s.11,1.11.33,1.63c.22.52.53.98.93,1.37.81.8,1.89,1.25,3.04,1.25s2.19-.43,3-1.21l.36-.49c.25-.33.72-.4,1.05-.15.33.25.4.72.15,1.05l-.4.53s-.05.06-.07.09c-1.1,1.08-2.55,1.68-4.09,1.68Z" />
  </g>
</svg>