<?xml version="1.0" encoding="UTF-8"?>
<svg id="Outlines" xmlns="http://www.w3.org/2000/svg" viewBox="0 0 24 24">
  <g id="combobox">
    <path
      d="M19.03,19.03H4.6c-.83,0-1.61-.32-2.19-.91s-.91-1.36-.91-2.19v-7.04c0-.83.32-1.6.91-2.19s1.36-.91,2.19-.91h14.43c.41,0,.75.34.75.75s-.34.75-.75.75H4.6c-.43,0-.83.17-1.13.47s-.47.7-.47,1.13v7.04c0,.43.17.83.47,1.13s.7.47,1.13.47h14.43c.41,0,.75.34.75.75s-.34.75-.75.75Z" />
    <path class="cls-1"
      d="M6,16.15c-.39,0-.7-.32-.7-.7v-6c0-.39.32-.7.7-.7s.7.32.7.7v6c0,.39-.32.7-.7.7Z" />
    <path class="cls-1"
      d="M19.5,15c-.19,0-.38-.07-.53-.22l-3-3c-.29-.29-.29-.77,0-1.06s.77-.29,1.06,0l2.47,2.47,2.47-2.47c.29-.29.77-.29,1.06,0s.29.77,0,1.06l-3,3c-.15.15-.34.22-.53.22Z" />
  </g>
</svg>