<?xml version="1.0" encoding="UTF-8"?>
<svg id="Outlines" xmlns="http://www.w3.org/2000/svg" viewBox="0 0 24 24">
  <g id="lane-swimlanes">
    <path class="cls-1"
      d="M20.75,6v12c0,1.52-1.23,2.75-2.75,2.75H6c-1.52,0-2.75-1.23-2.75-2.75V6c0-1.52,1.23-2.75,2.75-2.75h12c1.52,0,2.75,1.23,2.75,2.75ZM4.75,18c0,.69.56,1.25,1.25,1.25h12c.69,0,1.25-.56,1.25-1.25V6c0-.69-.56-1.25-1.25-1.25H6c-.69,0-1.25.56-1.25,1.25v12Z" />
    <path class="cls-1"
      d="M12.75,4v16c0,.41-.34.75-.75.75s-.75-.34-.75-.75V4c0-.41.34-.75.75-.75s.75.34.75.75Z" />
  </g>
</svg>