<?xml version="1.0" encoding="UTF-8"?>
<svg id="Outlines" xmlns="http://www.w3.org/2000/svg" viewBox="0 0 24 24">
  <g id="select">
    <path class="cls-1"
      d="M19.1,18.75H4.7c-.84,0-1.63-.33-2.23-.92s-.92-1.39-.92-2.23v-7.2c0-.84.33-1.63.92-2.23.6-.59,1.39-.92,2.23-.92h14.4c.83,0,1.64.34,2.23.92s.92,1.39.92,2.23v7.2c0,.84-.33,1.63-.92,2.23-.58.59-1.4.92-2.23.92ZM4.7,6.75c-.44,0-.86.17-1.17.48-.31.31-.48.73-.48,1.17v7.2c0,.44.17.86.48,1.17s.73.48,1.17.48h14.4c.43,0,.86-.18,1.17-.48.31-.31.48-.73.48-1.17v-7.2c0-.44-.17-.86-.48-1.17s-.73-.48-1.17-.48H4.7Z" />
    <path class="cls-1"
      d="M12,14.25c-.19,0-.38-.07-.53-.22l-3-3c-.29-.29-.29-.77,0-1.06s.77-.29,1.06,0l2.47,2.47,2.47-2.47c.29-.29.77-.29,1.06,0s.29.77,0,1.06l-3,3c-.15.15-.34.22-.53.22Z" />
  </g>
</svg>