<?xml version="1.0" encoding="UTF-8"?>
<svg id="Outlines" xmlns="http://www.w3.org/2000/svg" viewBox="0 0 24 24">
  <g id="component">
    <path class="cls-1"
      d="M7,20.65h-1c-.71,0-1.37-.28-1.87-.78-.5-.5-.78-1.17-.78-1.87v-2c0-.71.28-1.37.78-1.88.5-.5,1.17-.78,1.87-.78h1c.71,0,1.37.28,1.87.78s.78,1.17.78,1.88v2c0,.71-.28,1.37-.78,1.87-.5.5-1.17.78-1.88.78ZM6,14.65c-.36,0-.7.14-.95.39-.26.25-.4.59-.4.96v2c0,.36.14.7.4.95.25.25.6.4.95.4h1c.36,0,.7-.14.96-.4.25-.25.39-.59.39-.95v-2c0-.36-.14-.7-.39-.96-.25-.25-.59-.39-.96-.39h-1Z" />
    <path class="cls-1"
      d="M18,20.65h-3c-.71,0-1.37-.28-1.87-.78-.5-.5-.78-1.17-.78-1.87v-2c0-.71.28-1.37.78-1.88.5-.5,1.17-.78,1.87-.78h3c.71,0,1.37.28,1.87.78s.78,1.17.78,1.88v2c0,.71-.28,1.37-.78,1.87-.5.5-1.17.78-1.88.78ZM15,14.65c-.36,0-.7.14-.95.39-.26.25-.4.59-.4.96v2c0,.36.14.7.4.95.25.25.6.4.95.4h3c.36,0,.7-.14.96-.4.25-.25.39-.59.39-.95v-2c0-.36-.14-.7-.39-.96-.25-.25-.59-.39-.96-.39h-3Z" />
    <path class="cls-1"
      d="M18,10.65H6c-.71,0-1.37-.28-1.87-.78-.5-.5-.78-1.17-.78-1.87v-2c0-.71.28-1.37.78-1.87.5-.5,1.17-.78,1.87-.78h12c.71,0,1.37.28,1.87.78.5.5.78,1.17.78,1.87v2c0,.71-.28,1.37-.78,1.87-.5.5-1.17.78-1.88.78ZM6,4.65c-.36,0-.7.14-.95.4-.25.25-.4.6-.4.95v2c0,.36.14.7.4.95.25.25.6.4.95.4h12c.36,0,.7-.14.96-.4.25-.25.39-.59.39-.95v-2c0-.36-.14-.7-.39-.95-.25-.25-.59-.4-.96-.4H6Z" />
  </g>
</svg>