<?xml version="1.0" encoding="UTF-8"?>
<svg id="Outlines" xmlns="http://www.w3.org/2000/svg" viewBox="0 0 24 24">
  <g id="textarea">
    <path class="cls-1"
      d="M19.5,19.75H5c-.73,0-1.42-.29-1.94-.81s-.81-1.21-.81-1.94V7c0-1.52,1.23-2.75,2.75-2.75h14c.73,0,1.42.29,1.94.8.52.52.81,1.21.81,1.95v10c0,.48-.13.96-.37,1.38-.38.66-1,1-1.38,1.21l-.12.07c-.11.07-.24.1-.38.1ZM5,5.75c-.69,0-1.25.56-1.25,1.25v10c0,.33.13.65.37.88s.55.37.88.37h14.31c.26-.15.61-.34.78-.63.11-.19.17-.41.17-.62V7c0-.33-.13-.65-.37-.89-.24-.23-.55-.36-.88-.36H5Z" />
    <path class="cls-1"
      d="M18,9.75H6c-.41,0-.75-.34-.75-.75s.34-.75.75-.75h12c.41,0,.75.34.75.75s-.34.75-.75.75Z" />
    <path class="cls-1"
      d="M18,12.75H6c-.41,0-.75-.34-.75-.75s.34-.75.75-.75h12c.41,0,.75.34.75.75s-.34.75-.75.75Z" />
    <path class="cls-1"
      d="M12,15.75h-6c-.41,0-.75-.34-.75-.75s.34-.75.75-.75h6c.41,0,.75.34.75.75s-.34.75-.75.75Z" />
  </g>
</svg>